<mxfile host="65bd71144e">
    <diagram id="QmInR-CdUVieGNu7FS5R" name="Page-1">
        <mxGraphModel dx="1745" dy="357" grid="1" gridSize="10" guides="1" tooltips="1" connect="1" arrows="1" fold="1" page="1" pageScale="1" pageWidth="1169" pageHeight="827" math="0" shadow="0">
            <root>
                <mxCell id="0"/>
                <mxCell id="1" parent="0"/>
                <mxCell id="4" value="" style="edgeStyle=none;html=1;fontSize=15;sketch=1;" edge="1" parent="1" source="2" target="3">
                    <mxGeometry relative="1" as="geometry"/>
                </mxCell>
                <mxCell id="6" value="" style="edgeStyle=none;html=1;fontSize=15;sketch=1;" edge="1" parent="1" source="2" target="5">
                    <mxGeometry relative="1" as="geometry"/>
                </mxCell>
                <mxCell id="26" value="" style="edgeStyle=none;sketch=1;html=1;fontSize=15;" edge="1" parent="1" source="2">
                    <mxGeometry relative="1" as="geometry">
                        <mxPoint x="-1080" y="190" as="targetPoint"/>
                    </mxGeometry>
                </mxCell>
                <mxCell id="37" value="遍历" style="edgeLabel;html=1;align=center;verticalAlign=middle;resizable=0;points=[];fontSize=15;" vertex="1" connectable="0" parent="26">
                    <mxGeometry x="-0.375" y="-4" relative="1" as="geometry">
                        <mxPoint x="4" y="10" as="offset"/>
                    </mxGeometry>
                </mxCell>
                <mxCell id="2" value="&lt;font style=&quot;font-size: 15px&quot;&gt;二叉树&lt;/font&gt;" style="text;html=1;strokeColor=none;fillColor=none;align=center;verticalAlign=middle;whiteSpace=wrap;rounded=0;sketch=1;" parent="1" vertex="1">
                    <mxGeometry x="-1110" y="80" width="60" height="30" as="geometry"/>
                </mxCell>
                <mxCell id="3" value="&lt;font style=&quot;font-size: 15px&quot;&gt;每个节点度最多为2&lt;/font&gt;" style="text;html=1;strokeColor=none;fillColor=none;align=center;verticalAlign=middle;whiteSpace=wrap;rounded=0;fontSize=15;sketch=1;" vertex="1" parent="1">
                    <mxGeometry x="-970" y="80" width="170" height="30" as="geometry"/>
                </mxCell>
                <mxCell id="5" value="&lt;font style=&quot;font-size: 15px&quot;&gt;度为0的节点比度为2的节点多1个&lt;/font&gt;" style="text;html=1;strokeColor=none;fillColor=none;align=center;verticalAlign=middle;whiteSpace=wrap;rounded=0;fontSize=15;sketch=1;" vertex="1" parent="1">
                    <mxGeometry x="-1005" y="130" width="240" height="30" as="geometry"/>
                </mxCell>
                <mxCell id="27" value="" style="shape=table;startSize=0;container=1;collapsible=0;childLayout=tableLayout;fontSize=15;" vertex="1" parent="1">
                    <mxGeometry x="-1140" y="190" width="610" height="120" as="geometry"/>
                </mxCell>
                <mxCell id="28" value="" style="shape=partialRectangle;collapsible=0;dropTarget=0;pointerEvents=0;fillColor=none;top=0;left=0;bottom=0;right=0;points=[[0,0.5],[1,0.5]];portConstraint=eastwest;fontSize=15;" vertex="1" parent="27">
                    <mxGeometry width="610" height="40" as="geometry"/>
                </mxCell>
                <mxCell id="29" value="前序遍历" style="shape=partialRectangle;html=1;whiteSpace=wrap;connectable=0;overflow=hidden;fillColor=none;top=0;left=0;bottom=0;right=0;pointerEvents=1;fontSize=15;" vertex="1" parent="28">
                    <mxGeometry width="80" height="40" as="geometry">
                        <mxRectangle width="80" height="40" as="alternateBounds"/>
                    </mxGeometry>
                </mxCell>
                <mxCell id="30" value="根左右" style="shape=partialRectangle;html=1;whiteSpace=wrap;connectable=0;overflow=hidden;fillColor=none;top=0;left=0;bottom=0;right=0;pointerEvents=1;fontSize=15;" vertex="1" parent="28">
                    <mxGeometry x="80" width="90" height="40" as="geometry">
                        <mxRectangle width="90" height="40" as="alternateBounds"/>
                    </mxGeometry>
                </mxCell>
                <mxCell id="48" value="根在前，再用 前序遍历 遍历左子树，再用 前序遍历遍历右子树" style="shape=partialRectangle;html=1;whiteSpace=wrap;connectable=0;overflow=hidden;fillColor=none;top=0;left=0;bottom=0;right=0;pointerEvents=1;fontSize=15;" vertex="1" parent="28">
                    <mxGeometry x="170" width="220" height="40" as="geometry">
                        <mxRectangle width="220" height="40" as="alternateBounds"/>
                    </mxGeometry>
                </mxCell>
                <mxCell id="62" value="1,2,4,5,3,6" style="shape=partialRectangle;html=1;whiteSpace=wrap;connectable=0;overflow=hidden;fillColor=none;top=0;left=0;bottom=0;right=0;pointerEvents=1;fontSize=15;" vertex="1" parent="28">
                    <mxGeometry x="390" width="220" height="40" as="geometry">
                        <mxRectangle width="220" height="40" as="alternateBounds"/>
                    </mxGeometry>
                </mxCell>
                <mxCell id="31" value="" style="shape=partialRectangle;collapsible=0;dropTarget=0;pointerEvents=0;fillColor=none;top=0;left=0;bottom=0;right=0;points=[[0,0.5],[1,0.5]];portConstraint=eastwest;fontSize=15;" vertex="1" parent="27">
                    <mxGeometry y="40" width="610" height="40" as="geometry"/>
                </mxCell>
                <mxCell id="32" value="中序遍历" style="shape=partialRectangle;html=1;whiteSpace=wrap;connectable=0;overflow=hidden;fillColor=none;top=0;left=0;bottom=0;right=0;pointerEvents=1;fontSize=15;" vertex="1" parent="31">
                    <mxGeometry width="80" height="40" as="geometry">
                        <mxRectangle width="80" height="40" as="alternateBounds"/>
                    </mxGeometry>
                </mxCell>
                <mxCell id="33" value="左根右" style="shape=partialRectangle;html=1;whiteSpace=wrap;connectable=0;overflow=hidden;fillColor=none;top=0;left=0;bottom=0;right=0;pointerEvents=1;fontSize=15;" vertex="1" parent="31">
                    <mxGeometry x="80" width="90" height="40" as="geometry">
                        <mxRectangle width="90" height="40" as="alternateBounds"/>
                    </mxGeometry>
                </mxCell>
                <mxCell id="49" value="根在中间，对左子树进行中序遍历，再对右子树进行中序遍历" style="shape=partialRectangle;html=1;whiteSpace=wrap;connectable=0;overflow=hidden;fillColor=none;top=0;left=0;bottom=0;right=0;pointerEvents=1;fontSize=15;" vertex="1" parent="31">
                    <mxGeometry x="170" width="220" height="40" as="geometry">
                        <mxRectangle width="220" height="40" as="alternateBounds"/>
                    </mxGeometry>
                </mxCell>
                <mxCell id="63" value="4,2,5,1,3,6" style="shape=partialRectangle;html=1;whiteSpace=wrap;connectable=0;overflow=hidden;fillColor=none;top=0;left=0;bottom=0;right=0;pointerEvents=1;fontSize=15;" vertex="1" parent="31">
                    <mxGeometry x="390" width="220" height="40" as="geometry">
                        <mxRectangle width="220" height="40" as="alternateBounds"/>
                    </mxGeometry>
                </mxCell>
                <mxCell id="34" value="" style="shape=partialRectangle;collapsible=0;dropTarget=0;pointerEvents=0;fillColor=none;top=0;left=0;bottom=0;right=0;points=[[0,0.5],[1,0.5]];portConstraint=eastwest;fontSize=15;" vertex="1" parent="27">
                    <mxGeometry y="80" width="610" height="40" as="geometry"/>
                </mxCell>
                <mxCell id="35" value="后序遍历" style="shape=partialRectangle;html=1;whiteSpace=wrap;connectable=0;overflow=hidden;fillColor=none;top=0;left=0;bottom=0;right=0;pointerEvents=1;fontSize=15;" vertex="1" parent="34">
                    <mxGeometry width="80" height="40" as="geometry">
                        <mxRectangle width="80" height="40" as="alternateBounds"/>
                    </mxGeometry>
                </mxCell>
                <mxCell id="36" value="左右根" style="shape=partialRectangle;html=1;whiteSpace=wrap;connectable=0;overflow=hidden;fillColor=none;top=0;left=0;bottom=0;right=0;pointerEvents=1;fontSize=15;" vertex="1" parent="34">
                    <mxGeometry x="80" width="90" height="40" as="geometry">
                        <mxRectangle width="90" height="40" as="alternateBounds"/>
                    </mxGeometry>
                </mxCell>
                <mxCell id="50" value="根在最后，对左子树进行后序遍历，再对右子树进行后序遍历" style="shape=partialRectangle;html=1;whiteSpace=wrap;connectable=0;overflow=hidden;fillColor=none;top=0;left=0;bottom=0;right=0;pointerEvents=1;fontSize=15;" vertex="1" parent="34">
                    <mxGeometry x="170" width="220" height="40" as="geometry">
                        <mxRectangle width="220" height="40" as="alternateBounds"/>
                    </mxGeometry>
                </mxCell>
                <mxCell id="64" value="4,5,2,6,3,1" style="shape=partialRectangle;html=1;whiteSpace=wrap;connectable=0;overflow=hidden;fillColor=none;top=0;left=0;bottom=0;right=0;pointerEvents=1;fontSize=15;" vertex="1" parent="34">
                    <mxGeometry x="390" width="220" height="40" as="geometry">
                        <mxRectangle width="220" height="40" as="alternateBounds"/>
                    </mxGeometry>
                </mxCell>
                <mxCell id="51" value="1" style="ellipse;whiteSpace=wrap;html=1;aspect=fixed;fontSize=15;" vertex="1" parent="1">
                    <mxGeometry x="-1020" y="340" width="50" height="50" as="geometry"/>
                </mxCell>
                <mxCell id="52" value="2" style="ellipse;whiteSpace=wrap;html=1;aspect=fixed;fontSize=15;" vertex="1" parent="1">
                    <mxGeometry x="-1090" y="440" width="50" height="50" as="geometry"/>
                </mxCell>
                <mxCell id="53" value="3" style="ellipse;whiteSpace=wrap;html=1;aspect=fixed;fontSize=15;" vertex="1" parent="1">
                    <mxGeometry x="-950" y="440" width="50" height="50" as="geometry"/>
                </mxCell>
                <mxCell id="54" value="4" style="ellipse;whiteSpace=wrap;html=1;aspect=fixed;fontSize=15;" vertex="1" parent="1">
                    <mxGeometry x="-1140" y="540" width="50" height="50" as="geometry"/>
                </mxCell>
                <mxCell id="55" value="5" style="ellipse;whiteSpace=wrap;html=1;aspect=fixed;fontSize=15;" vertex="1" parent="1">
                    <mxGeometry x="-1030" y="540" width="50" height="50" as="geometry"/>
                </mxCell>
                <mxCell id="56" value="6" style="ellipse;whiteSpace=wrap;html=1;aspect=fixed;fontSize=15;" vertex="1" parent="1">
                    <mxGeometry x="-890" y="540" width="50" height="50" as="geometry"/>
                </mxCell>
                <mxCell id="57" value="" style="endArrow=classic;html=1;sketch=1;fontSize=15;exitX=0;exitY=1;exitDx=0;exitDy=0;" edge="1" parent="1" source="51" target="52">
                    <mxGeometry width="50" height="50" relative="1" as="geometry">
                        <mxPoint x="-1010" y="380" as="sourcePoint"/>
                        <mxPoint x="-1050" y="440" as="targetPoint"/>
                    </mxGeometry>
                </mxCell>
                <mxCell id="58" value="" style="endArrow=classic;html=1;sketch=1;fontSize=15;exitX=0.3;exitY=0.98;exitDx=0;exitDy=0;exitPerimeter=0;" edge="1" parent="1" source="52">
                    <mxGeometry width="50" height="50" relative="1" as="geometry">
                        <mxPoint x="-1071.0676695296638" y="479.9976695296637" as="sourcePoint"/>
                        <mxPoint x="-1110.0014493660428" y="541.2072855387598" as="targetPoint"/>
                    </mxGeometry>
                </mxCell>
                <mxCell id="59" value="" style="endArrow=classic;html=1;sketch=1;fontSize=15;exitX=1;exitY=1;exitDx=0;exitDy=0;entryX=0;entryY=0;entryDx=0;entryDy=0;" edge="1" parent="1" source="51" target="53">
                    <mxGeometry width="50" height="50" relative="1" as="geometry">
                        <mxPoint x="-992.6776695296637" y="402.6776695296637" as="sourcePoint"/>
                        <mxPoint x="-1031.6114493660427" y="463.8872855387599" as="targetPoint"/>
                    </mxGeometry>
                </mxCell>
                <mxCell id="60" value="" style="endArrow=classic;html=1;sketch=1;fontSize=15;exitX=1;exitY=1;exitDx=0;exitDy=0;entryX=0.5;entryY=0;entryDx=0;entryDy=0;" edge="1" parent="1" source="52" target="55">
                    <mxGeometry width="50" height="50" relative="1" as="geometry">
                        <mxPoint x="-982.6776695296637" y="412.6776695296637" as="sourcePoint"/>
                        <mxPoint x="-1021.6114493660427" y="473.8872855387599" as="targetPoint"/>
                    </mxGeometry>
                </mxCell>
                <mxCell id="61" value="" style="endArrow=classic;html=1;sketch=1;fontSize=15;entryX=0;entryY=0;entryDx=0;entryDy=0;" edge="1" parent="1" source="53" target="56">
                    <mxGeometry width="50" height="50" relative="1" as="geometry">
                        <mxPoint x="-972.6776695296637" y="422.6776695296637" as="sourcePoint"/>
                        <mxPoint x="-1011.6114493660427" y="483.8872855387599" as="targetPoint"/>
                    </mxGeometry>
                </mxCell>
                <mxCell id="67" value="" style="shape=flexArrow;endArrow=classic;html=1;sketch=1;fontSize=15;" edge="1" parent="1">
                    <mxGeometry width="50" height="50" relative="1" as="geometry">
                        <mxPoint x="-820" y="460" as="sourcePoint"/>
                        <mxPoint x="-660" y="320" as="targetPoint"/>
                    </mxGeometry>
                </mxCell>
                <mxCell id="68" value="遍历" style="edgeLabel;html=1;align=center;verticalAlign=middle;resizable=0;points=[];fontSize=15;" vertex="1" connectable="0" parent="67">
                    <mxGeometry x="0.1416" y="-3" relative="1" as="geometry">
                        <mxPoint y="-1" as="offset"/>
                    </mxGeometry>
                </mxCell>
                <mxCell id="74" value="" style="shape=curlyBracket;whiteSpace=wrap;html=1;rounded=1;flipH=1;fontSize=15;" vertex="1" parent="1">
                    <mxGeometry x="-520" y="190" width="20" height="120" as="geometry"/>
                </mxCell>
                <mxCell id="75" value="&lt;span style=&quot;font-size: 15px&quot;&gt;递归&lt;/span&gt;" style="text;html=1;strokeColor=none;fillColor=none;align=center;verticalAlign=middle;whiteSpace=wrap;rounded=0;" vertex="1" parent="1">
                    <mxGeometry x="-500" y="235" width="60" height="30" as="geometry"/>
                </mxCell>
                <mxCell id="78" value="" style="edgeStyle=none;sketch=1;html=1;fontSize=15;fontColor=#990000;entryX=0.405;entryY=-0.133;entryDx=0;entryDy=0;entryPerimeter=0;" edge="1" parent="1" source="76" target="77">
                    <mxGeometry relative="1" as="geometry"/>
                </mxCell>
                <mxCell id="76" value="&lt;font style=&quot;font-size: 15px&quot; color=&quot;#990000&quot;&gt;完全二叉树&lt;/font&gt;" style="text;html=1;strokeColor=none;fillColor=none;align=center;verticalAlign=middle;whiteSpace=wrap;rounded=0;" vertex="1" parent="1">
                    <mxGeometry x="-1060" y="650" width="130" height="30" as="geometry"/>
                </mxCell>
                <mxCell id="77" value="&lt;font color=&quot;#000066&quot;&gt;只有最后一层右侧缺少节点&lt;/font&gt;" style="text;html=1;strokeColor=none;fillColor=none;align=center;verticalAlign=middle;whiteSpace=wrap;rounded=0;fontSize=15;fontColor=#990000;" vertex="1" parent="1">
                    <mxGeometry x="-1080" y="710" width="200" height="30" as="geometry"/>
                </mxCell>
                <mxCell id="86" style="edgeStyle=none;sketch=1;html=1;exitX=0;exitY=1;exitDx=0;exitDy=0;fontSize=15;fontColor=#000066;" edge="1" parent="1" source="79" target="80">
                    <mxGeometry relative="1" as="geometry"/>
                </mxCell>
                <mxCell id="89" style="edgeStyle=none;sketch=1;html=1;exitX=1;exitY=1;exitDx=0;exitDy=0;entryX=0;entryY=0;entryDx=0;entryDy=0;fontSize=15;fontColor=#000066;" edge="1" parent="1" source="79" target="81">
                    <mxGeometry relative="1" as="geometry"/>
                </mxCell>
                <mxCell id="79" value="1" style="ellipse;whiteSpace=wrap;html=1;aspect=fixed;fontSize=15;" vertex="1" parent="1">
                    <mxGeometry x="-1020" y="740" width="50" height="50" as="geometry"/>
                </mxCell>
                <mxCell id="87" style="edgeStyle=none;sketch=1;html=1;exitX=0;exitY=1;exitDx=0;exitDy=0;fontSize=15;fontColor=#000066;" edge="1" parent="1" source="80" target="82">
                    <mxGeometry relative="1" as="geometry"/>
                </mxCell>
                <mxCell id="88" style="edgeStyle=none;sketch=1;html=1;exitX=1;exitY=1;exitDx=0;exitDy=0;fontSize=15;fontColor=#000066;" edge="1" parent="1" source="80" target="83">
                    <mxGeometry relative="1" as="geometry"/>
                </mxCell>
                <mxCell id="80" value="2" style="ellipse;whiteSpace=wrap;html=1;aspect=fixed;fontSize=15;" vertex="1" parent="1">
                    <mxGeometry x="-1100" y="820" width="50" height="50" as="geometry"/>
                </mxCell>
                <mxCell id="91" style="edgeStyle=none;sketch=1;html=1;exitX=0.5;exitY=1;exitDx=0;exitDy=0;entryX=0.68;entryY=0.06;entryDx=0;entryDy=0;entryPerimeter=0;fontSize=15;fontColor=#000066;" edge="1" parent="1" source="81" target="84">
                    <mxGeometry relative="1" as="geometry"/>
                </mxCell>
                <mxCell id="81" value="3" style="ellipse;whiteSpace=wrap;html=1;aspect=fixed;fontSize=15;" vertex="1" parent="1">
                    <mxGeometry x="-940" y="820" width="50" height="50" as="geometry"/>
                </mxCell>
                <mxCell id="82" value="4" style="ellipse;whiteSpace=wrap;html=1;aspect=fixed;fontSize=15;" vertex="1" parent="1">
                    <mxGeometry x="-1150" y="890" width="50" height="50" as="geometry"/>
                </mxCell>
                <mxCell id="83" value="5" style="ellipse;whiteSpace=wrap;html=1;aspect=fixed;fontSize=15;" vertex="1" parent="1">
                    <mxGeometry x="-1050" y="890" width="50" height="50" as="geometry"/>
                </mxCell>
                <mxCell id="84" value="6" style="ellipse;whiteSpace=wrap;html=1;aspect=fixed;fontSize=15;" vertex="1" parent="1">
                    <mxGeometry x="-970" y="890" width="50" height="50" as="geometry"/>
                </mxCell>
                <mxCell id="92" value="&lt;font color=&quot;#990000&quot;&gt;&lt;span style=&quot;font-size: 15px&quot;&gt;满二叉树&lt;/span&gt;&lt;/font&gt;" style="text;html=1;strokeColor=none;fillColor=none;align=center;verticalAlign=middle;whiteSpace=wrap;rounded=0;" vertex="1" parent="1">
                    <mxGeometry x="-649" y="650" width="130" height="30" as="geometry"/>
                </mxCell>
                <mxCell id="93" value="&lt;font color=&quot;#000066&quot;&gt;没有度为1的节点&lt;/font&gt;" style="text;html=1;strokeColor=none;fillColor=none;align=center;verticalAlign=middle;whiteSpace=wrap;rounded=0;fontSize=15;fontColor=#990000;" vertex="1" parent="1">
                    <mxGeometry x="-684" y="710" width="200" height="30" as="geometry"/>
                </mxCell>
                <mxCell id="104" style="edgeStyle=none;sketch=1;html=1;exitX=0;exitY=1;exitDx=0;exitDy=0;entryX=1;entryY=0;entryDx=0;entryDy=0;fontSize=15;fontColor=#000066;" edge="1" parent="1" source="94" target="95">
                    <mxGeometry relative="1" as="geometry"/>
                </mxCell>
                <mxCell id="106" style="edgeStyle=none;sketch=1;html=1;exitX=1;exitY=1;exitDx=0;exitDy=0;entryX=0.1;entryY=0.28;entryDx=0;entryDy=0;entryPerimeter=0;fontSize=15;fontColor=#000066;" edge="1" parent="1" source="94" target="96">
                    <mxGeometry relative="1" as="geometry"/>
                </mxCell>
                <mxCell id="94" value="1" style="ellipse;whiteSpace=wrap;html=1;aspect=fixed;fontSize=15;" vertex="1" parent="1">
                    <mxGeometry x="-609" y="770" width="50" height="50" as="geometry"/>
                </mxCell>
                <mxCell id="105" style="edgeStyle=none;sketch=1;html=1;exitX=0;exitY=1;exitDx=0;exitDy=0;entryX=1;entryY=0;entryDx=0;entryDy=0;fontSize=15;fontColor=#000066;" edge="1" parent="1" source="95" target="97">
                    <mxGeometry relative="1" as="geometry"/>
                </mxCell>
                <mxCell id="107" style="edgeStyle=none;sketch=1;html=1;exitX=1;exitY=1;exitDx=0;exitDy=0;fontSize=15;fontColor=#000066;" edge="1" parent="1" source="95" target="98">
                    <mxGeometry relative="1" as="geometry"/>
                </mxCell>
                <mxCell id="95" value="2" style="ellipse;whiteSpace=wrap;html=1;aspect=fixed;fontSize=15;" vertex="1" parent="1">
                    <mxGeometry x="-699" y="830" width="50" height="50" as="geometry"/>
                </mxCell>
                <mxCell id="108" style="edgeStyle=none;sketch=1;html=1;exitX=0;exitY=1;exitDx=0;exitDy=0;fontSize=15;fontColor=#000066;" edge="1" parent="1" source="96" target="99">
                    <mxGeometry relative="1" as="geometry"/>
                </mxCell>
                <mxCell id="109" style="edgeStyle=none;sketch=1;html=1;exitX=1;exitY=1;exitDx=0;exitDy=0;fontSize=15;fontColor=#000066;" edge="1" parent="1" source="96" target="100">
                    <mxGeometry relative="1" as="geometry"/>
                </mxCell>
                <mxCell id="96" value="3" style="ellipse;whiteSpace=wrap;html=1;aspect=fixed;fontSize=15;" vertex="1" parent="1">
                    <mxGeometry x="-510" y="830" width="50" height="50" as="geometry"/>
                </mxCell>
                <mxCell id="97" value="4" style="ellipse;whiteSpace=wrap;html=1;aspect=fixed;fontSize=15;" vertex="1" parent="1">
                    <mxGeometry x="-760" y="900" width="50" height="50" as="geometry"/>
                </mxCell>
                <mxCell id="98" value="5" style="ellipse;whiteSpace=wrap;html=1;aspect=fixed;fontSize=15;" vertex="1" parent="1">
                    <mxGeometry x="-640" y="900" width="50" height="50" as="geometry"/>
                </mxCell>
                <mxCell id="110" style="edgeStyle=none;sketch=1;html=1;exitX=0;exitY=1;exitDx=0;exitDy=0;entryX=0.7;entryY=-0.04;entryDx=0;entryDy=0;entryPerimeter=0;fontSize=15;fontColor=#000066;" edge="1" parent="1" source="99" target="101">
                    <mxGeometry relative="1" as="geometry"/>
                </mxCell>
                <mxCell id="111" style="edgeStyle=none;sketch=1;html=1;exitX=1;exitY=1;exitDx=0;exitDy=0;entryX=0.5;entryY=0;entryDx=0;entryDy=0;fontSize=15;fontColor=#000066;" edge="1" parent="1" source="99" target="102">
                    <mxGeometry relative="1" as="geometry"/>
                </mxCell>
                <mxCell id="99" value="6" style="ellipse;whiteSpace=wrap;html=1;aspect=fixed;fontSize=15;" vertex="1" parent="1">
                    <mxGeometry x="-560" y="900" width="50" height="50" as="geometry"/>
                </mxCell>
                <mxCell id="100" value="7" style="ellipse;whiteSpace=wrap;html=1;aspect=fixed;fontSize=15;" vertex="1" parent="1">
                    <mxGeometry x="-450" y="900" width="50" height="50" as="geometry"/>
                </mxCell>
                <mxCell id="101" value="8" style="ellipse;whiteSpace=wrap;html=1;aspect=fixed;fontSize=15;" vertex="1" parent="1">
                    <mxGeometry x="-600" y="980" width="50" height="50" as="geometry"/>
                </mxCell>
                <mxCell id="102" value="9" style="ellipse;whiteSpace=wrap;html=1;aspect=fixed;fontSize=15;" vertex="1" parent="1">
                    <mxGeometry x="-510" y="980" width="50" height="50" as="geometry"/>
                </mxCell>
                <mxCell id="112" value="&lt;font color=&quot;#990000&quot;&gt;&lt;span style=&quot;font-size: 15px&quot;&gt;完美二叉树&lt;/span&gt;&lt;/font&gt;" style="text;html=1;strokeColor=none;fillColor=none;align=center;verticalAlign=middle;whiteSpace=wrap;rounded=0;" vertex="1" parent="1">
                    <mxGeometry x="-240" y="660" width="130" height="30" as="geometry"/>
                </mxCell>
                <mxCell id="120" style="edgeStyle=none;sketch=1;html=1;exitX=0;exitY=1;exitDx=0;exitDy=0;entryX=0.74;entryY=-0.04;entryDx=0;entryDy=0;entryPerimeter=0;fontSize=15;fontColor=#000066;" edge="1" parent="1" source="113" target="114">
                    <mxGeometry relative="1" as="geometry"/>
                </mxCell>
                <mxCell id="123" style="edgeStyle=none;sketch=1;html=1;exitX=1;exitY=1;exitDx=0;exitDy=0;fontSize=15;fontColor=#000066;" edge="1" parent="1" source="113" target="115">
                    <mxGeometry relative="1" as="geometry"/>
                </mxCell>
                <mxCell id="113" value="1" style="ellipse;whiteSpace=wrap;html=1;aspect=fixed;fontSize=15;" vertex="1" parent="1">
                    <mxGeometry x="-170" y="760" width="50" height="50" as="geometry"/>
                </mxCell>
                <mxCell id="121" style="edgeStyle=none;sketch=1;html=1;exitX=0;exitY=1;exitDx=0;exitDy=0;entryX=0.5;entryY=0;entryDx=0;entryDy=0;fontSize=15;fontColor=#000066;" edge="1" parent="1" source="114" target="116">
                    <mxGeometry relative="1" as="geometry"/>
                </mxCell>
                <mxCell id="122" style="edgeStyle=none;sketch=1;html=1;exitX=1;exitY=1;exitDx=0;exitDy=0;entryX=0;entryY=0.5;entryDx=0;entryDy=0;fontSize=15;fontColor=#000066;" edge="1" parent="1" source="114" target="117">
                    <mxGeometry relative="1" as="geometry"/>
                </mxCell>
                <mxCell id="114" value="2" style="ellipse;whiteSpace=wrap;html=1;aspect=fixed;fontSize=15;" vertex="1" parent="1">
                    <mxGeometry x="-260" y="840" width="50" height="50" as="geometry"/>
                </mxCell>
                <mxCell id="124" style="edgeStyle=none;sketch=1;html=1;exitX=0;exitY=1;exitDx=0;exitDy=0;entryX=0.5;entryY=0;entryDx=0;entryDy=0;fontSize=15;fontColor=#000066;" edge="1" parent="1" source="115" target="118">
                    <mxGeometry relative="1" as="geometry"/>
                </mxCell>
                <mxCell id="125" style="edgeStyle=none;sketch=1;html=1;exitX=1;exitY=1;exitDx=0;exitDy=0;entryX=0.38;entryY=0.04;entryDx=0;entryDy=0;entryPerimeter=0;fontSize=15;fontColor=#000066;" edge="1" parent="1" source="115" target="119">
                    <mxGeometry relative="1" as="geometry"/>
                </mxCell>
                <mxCell id="115" value="3" style="ellipse;whiteSpace=wrap;html=1;aspect=fixed;fontSize=15;" vertex="1" parent="1">
                    <mxGeometry x="-90" y="840" width="50" height="50" as="geometry"/>
                </mxCell>
                <mxCell id="116" value="4" style="ellipse;whiteSpace=wrap;html=1;aspect=fixed;fontSize=15;" vertex="1" parent="1">
                    <mxGeometry x="-300" y="920" width="50" height="50" as="geometry"/>
                </mxCell>
                <mxCell id="117" value="5" style="ellipse;whiteSpace=wrap;html=1;aspect=fixed;fontSize=15;direction=south;" vertex="1" parent="1">
                    <mxGeometry x="-210" y="920" width="50" height="50" as="geometry"/>
                </mxCell>
                <mxCell id="118" value="6" style="ellipse;whiteSpace=wrap;html=1;aspect=fixed;fontSize=15;" vertex="1" parent="1">
                    <mxGeometry x="-120" y="920" width="50" height="50" as="geometry"/>
                </mxCell>
                <mxCell id="119" value="7" style="ellipse;whiteSpace=wrap;html=1;aspect=fixed;fontSize=15;" vertex="1" parent="1">
                    <mxGeometry x="-50" y="920" width="50" height="50" as="geometry"/>
                </mxCell>
                <mxCell id="126" value="" style="shape=flexArrow;endArrow=classic;html=1;sketch=1;fontSize=15;fontColor=#000066;" edge="1" parent="1">
                    <mxGeometry width="50" height="50" relative="1" as="geometry">
                        <mxPoint x="-1005.5" y="970" as="sourcePoint"/>
                        <mxPoint x="-1005.5" y="1110" as="targetPoint"/>
                    </mxGeometry>
                </mxCell>
                <mxCell id="127" value="性质" style="edgeLabel;html=1;align=center;verticalAlign=middle;resizable=0;points=[];fontSize=15;fontColor=#000066;" vertex="1" connectable="0" parent="126">
                    <mxGeometry x="-0.2143" y="-1" relative="1" as="geometry">
                        <mxPoint as="offset"/>
                    </mxGeometry>
                </mxCell>
                <mxCell id="128" value="完全二叉树" style="swimlane;fontStyle=0;childLayout=stackLayout;horizontal=1;startSize=30;horizontalStack=0;resizeParent=1;resizeParentMax=0;resizeLast=0;collapsible=1;marginBottom=0;fontSize=15;fontColor=#000066;" vertex="1" parent="1">
                    <mxGeometry x="-1110" y="1121" width="230" height="160" as="geometry"/>
                </mxCell>
                <mxCell id="129" value="1. 编号为i的子节点：&#10;左孩子编号：2*i&#10;右孩子编号：2*i+1" style="text;strokeColor=none;fillColor=none;align=left;verticalAlign=middle;spacingLeft=4;spacingRight=4;overflow=hidden;points=[[0,0.5],[1,0.5]];portConstraint=eastwest;rotatable=0;fontSize=15;fontColor=#000066;" vertex="1" parent="128">
                    <mxGeometry y="30" width="230" height="80" as="geometry"/>
                </mxCell>
                <mxCell id="130" value="2. 可以用连续空间存储（数组）" style="text;strokeColor=none;fillColor=none;align=left;verticalAlign=middle;spacingLeft=4;spacingRight=4;overflow=hidden;points=[[0,0.5],[1,0.5]];portConstraint=eastwest;rotatable=0;fontSize=15;fontColor=#000066;" vertex="1" parent="128">
                    <mxGeometry y="110" width="230" height="50" as="geometry"/>
                </mxCell>
                <mxCell id="140" style="edgeStyle=none;sketch=1;html=1;exitX=0;exitY=0;exitDx=18;exitDy=39;exitPerimeter=0;entryX=0;entryY=0;entryDx=18;entryDy=21;entryPerimeter=0;fontSize=15;fontColor=#000066;" edge="1" parent="1" source="137" target="138">
                    <mxGeometry relative="1" as="geometry"/>
                </mxCell>
                <mxCell id="137" value="i=0" style="shape=singleArrow;whiteSpace=wrap;html=1;fontSize=15;fontColor=#000066;" vertex="1" parent="1">
                    <mxGeometry x="-1165" y="735" width="45" height="60" as="geometry"/>
                </mxCell>
                <mxCell id="139" style="edgeStyle=none;sketch=1;html=1;exitX=0;exitY=0;exitDx=18;exitDy=39;exitPerimeter=0;fontSize=15;fontColor=#000066;entryX=0;entryY=0.5;entryDx=0;entryDy=0;" edge="1" parent="1" source="138" target="129">
                    <mxGeometry relative="1" as="geometry">
                        <mxPoint x="-1147" y="1150" as="targetPoint"/>
                        <Array as="points">
                            <mxPoint x="-1160" y="890"/>
                            <mxPoint x="-1160" y="1000"/>
                            <mxPoint x="-1150" y="1180"/>
                        </Array>
                    </mxGeometry>
                </mxCell>
                <mxCell id="138" value="i=1" style="shape=singleArrow;whiteSpace=wrap;html=1;fontSize=15;fontColor=#000066;" vertex="1" parent="1">
                    <mxGeometry x="-1165" y="810" width="45" height="60" as="geometry"/>
                </mxCell>
                <mxCell id="143" value="&lt;font color=&quot;#006600&quot;&gt;节省&lt;br&gt;存储&lt;br&gt;空间&lt;/font&gt;" style="shape=switch;whiteSpace=wrap;html=1;fontSize=15;fontColor=#000066;" vertex="1" parent="1">
                    <mxGeometry x="-880" y="1131" width="100" height="150" as="geometry"/>
                </mxCell>
            </root>
        </mxGraphModel>
    </diagram>
</mxfile>
